<svg width="256" height="256" viewBox="0 0 256 256" fill="none" xmlns="http://www.w3.org/2000/svg">
<g clip-path="url(#clip0_3_2)">
<path fill-rule="evenodd" clip-rule="evenodd" d="M18.7392 18.7392C0 37.504 0 67.6608 0 128C0 188.339 0 218.509 18.7392 237.248C37.504 256 67.6608 256 128 256C188.339 256 218.509 256 237.248 237.248C256 218.522 256 188.339 256 128C256 67.6608 256 37.4912 237.248 18.7392C218.522 0 188.339 0 128 0C67.6608 0 37.4912 0 18.7392 18.7392ZM192 136.538C192 191.142 146.483 204.8 123.738 204.8C103.808 204.8 64 191.142 64 136.538C64 112.768 77.6064 97.7024 89.0368 90.112C94.2592 86.6432 100.762 88.8576 101.094 95.1168C101.837 108.826 112.397 119.834 120.589 108.813C128.064 98.7264 131.763 85.0304 131.763 76.8C131.763 64.6784 144.026 56.9856 153.613 64.4096C172.275 78.8736 192 103.117 192 136.538Z" fill="url(#paint0_linear_3_2)"/>
</g>
<defs>
<linearGradient id="paint0_linear_3_2" x1="128" y1="0" x2="128" y2="256" gradientUnits="userSpaceOnUse">
<stop stop-color="#FE682B"/>
<stop offset="1" stop-color="#FF215C"/>
</linearGradient>
<clipPath id="clip0_3_2">
<rect width="256" height="256" fill="white"/>
</clipPath>
</defs>
</svg>
