<svg width="810" height="630" viewBox="0 0 810 630" fill="none" xmlns="http://www.w3.org/2000/svg">
<g id="No Chat History">
<path id="Fill 1" fill-rule="evenodd" clip-rule="evenodd" d="M438.406 0C364.356 0 296.296 25.6687 242.555 68.6146H155.7C144.416 68.6146 135.183 77.8776 135.183 89.199C135.183 100.52 144.416 109.783 155.7 109.783H199.903H212.856C224.141 109.783 233.373 119.046 233.373 130.368C233.373 136.022 231.062 141.181 227.341 144.9C223.635 148.633 218.492 150.952 212.856 150.952H185.221H169.962H95.517C84.2326 150.952 75 160.215 75 171.536C75 182.858 84.2326 192.121 95.517 192.121H148.812C132.724 230.054 123.813 271.792 123.813 315.627C123.813 331.532 124.989 347.162 127.246 362.436C128.19 368.817 129.325 375.143 130.652 381.401C169.36 375.459 210.422 370.683 253.288 367.198L256.516 370.148L259.553 366.704C311.051 362.683 365.106 360.542 420.857 360.542C539.309 360.542 650.155 370.203 744.93 387C748.582 371.109 751.044 354.765 752.207 338.05C752.74 330.64 753 323.161 753 315.627C753 141.305 612.158 0 438.406 0Z" fill="#F1F2F7"/>
<path id="Fill 3" fill-rule="evenodd" clip-rule="evenodd" d="M33.2169 150H20.7831C9.35239 150 0 159.45 0 171C0 182.55 9.35239 192 20.7831 192H33.2169C44.6476 192 54 182.55 54 171C54 159.45 44.6476 150 33.2169 150Z" fill="#F1F2F7"/>
<g id="Group 7">
<mask id="mask0_48_6031" style="mask-type:luminance" maskUnits="userSpaceOnUse" x="130" y="360" width="680" height="271">
<path id="Clip 6" fill-rule="evenodd" clip-rule="evenodd" d="M809.789 360.996V630.001H470.007H130.225V360.996H809.789Z" fill="white"/>
</mask>
<g mask="url(#mask0_48_6031)">
<path id="Fill 5" fill-rule="evenodd" clip-rule="evenodd" d="M809.789 465.001C809.789 476.251 800.558 485.455 789.277 485.455H658.258C652.624 485.455 647.484 487.76 643.778 491.469C640.058 495.164 637.746 500.292 637.746 505.91C637.746 517.16 646.976 526.364 658.258 526.364H682.6C688.233 526.364 693.376 528.669 697.082 532.378C700.801 536.073 703.112 541.201 703.112 546.819C703.112 558.069 693.882 567.273 682.6 567.273H626.63C574.049 606.655 508.713 630.001 437.905 630.001C286.677 630.001 160.377 523.569 130.225 381.723C168.924 375.819 209.975 371.073 252.832 367.61L256.058 370.542L259.095 367.119C310.579 363.123 364.623 360.996 420.361 360.996C538.782 360.996 649.602 370.596 744.354 387.287C739.747 407.169 733.238 426.314 725.033 444.546H789.277C794.924 444.546 800.039 446.851 803.758 450.56C807.478 454.255 809.789 459.382 809.789 465.001Z" fill="#E8EBF2"/>
</g>
</g>
<path id="Fill 8" fill-rule="evenodd" clip-rule="evenodd" d="M750 337.117C748.839 354.151 746.38 370.806 742.733 387C648.084 369.883 537.385 360.039 419.09 360.039C363.413 360.039 309.429 362.22 258 366.317L293.666 324.993L349.148 361.199L424.254 340.461L553.458 360.039L609.55 340.461L623.756 360.039L657.65 334.881L689.323 363.912L739.277 324L750 337.117Z" fill="#E0E2EE"/>
<path id="Fill 10" fill-rule="evenodd" clip-rule="evenodd" d="M565.861 355.2C580.068 334.548 588.206 310.057 587.996 283.848C587.415 210.949 522.473 152.371 442.946 153.005C363.418 153.641 299.422 213.254 300.004 286.152C300.586 359.049 365.528 417.629 445.054 416.995C473.468 416.768 499.898 409.008 522.11 395.806L581.526 409.796L565.861 355.2Z" fill="#D8DBEA"/>
<path id="Fill 12" fill-rule="evenodd" clip-rule="evenodd" d="M402 281.881C402.066 290.164 395.403 296.933 387.12 296.999C378.834 297.067 372.065 290.403 372 282.12C371.934 273.836 378.595 267.068 386.88 267C395.163 266.934 401.932 273.597 402 281.881Z" fill="#BEC0D6"/>
<path id="Fill 14" fill-rule="evenodd" clip-rule="evenodd" d="M456 281.88C456.066 290.164 449.403 296.934 441.119 297C432.834 297.066 426.065 290.403 426.001 282.12C425.933 273.836 432.595 267.066 440.88 267C449.163 266.934 455.932 273.597 456 281.88Z" fill="#BEC0D6"/>
<path id="Fill 16" fill-rule="evenodd" clip-rule="evenodd" d="M510 281.88C510.066 290.163 503.403 296.932 495.119 297C486.834 297.066 480.065 290.403 480.001 282.119C479.933 273.834 486.595 267.067 494.88 267.001C503.163 266.933 509.932 273.597 510 281.88Z" fill="#BEC0D6"/>
<path id="Fill 18" fill-rule="evenodd" clip-rule="evenodd" d="M258 366L255.09 369L252 366.43C253.99 366.275 255.996 366.131 258 366Z" fill="#F1F2F7"/>
<path id="Fill 20" fill-rule="evenodd" clip-rule="evenodd" d="M285 387.001C285 396.527 288.047 405.396 293.283 412.862L287.726 432.779L309.363 427.515C317.498 432.247 327.144 435 337.5 435C366.496 435 390 413.51 390 387.001C390 360.49 366.496 339 337.5 339C308.504 339 285 360.49 285 387.001Z" fill="url(#paint0_linear_48_6031)"/>
<path id="Fill 22" fill-rule="evenodd" clip-rule="evenodd" d="M351 387.001C351 390.314 353.685 393 356.999 393C360.312 393 363 390.314 363 387.001C363 383.688 360.312 381 356.999 381C353.685 381 351 383.688 351 387.001Z" fill="white"/>
<path id="Fill 24" fill-rule="evenodd" clip-rule="evenodd" d="M333 387.001C333 390.314 335.686 393 339 393C342.313 393 345 390.314 345 387.001C345 383.688 342.313 381 339 381C335.686 381 333 383.688 333 387.001Z" fill="white"/>
<path id="Fill 26" fill-rule="evenodd" clip-rule="evenodd" d="M312 387.001C312 390.314 314.686 393 318 393C321.313 393 324 390.314 324 387.001C324 383.688 321.313 381 318 381C314.686 381 312 383.688 312 387.001Z" fill="white"/>
<path id="Fill 28" fill-rule="evenodd" clip-rule="evenodd" d="M252 366.774C209.148 370.265 168.1 375.048 129.405 381C128.078 374.732 126.943 368.396 126 362.004L192.328 312L252 366.774Z" fill="#E0E2EE"/>
<path id="Fill 30" fill-rule="evenodd" clip-rule="evenodd" d="M552 469.5C552 475.299 499.617 480 435 480C370.382 480 318 475.299 318 469.5C318 463.703 370.382 459 435 459C499.617 459 552 463.703 552 469.5Z" fill="#D8DBEA"/>
<path id="Fill 32" fill-rule="evenodd" clip-rule="evenodd" d="M744 567C732.45 567 723 557.55 723 546C723 534.45 732.45 525 744 525C755.55 525 765 534.45 765 546C765 557.55 755.55 567 744 567Z" fill="#E1E3EF"/>
</g>
<defs>
<linearGradient id="paint0_linear_48_6031" x1="337.5" y1="291" x2="241.884" y2="395.58" gradientUnits="userSpaceOnUse">
<stop stop-color="#FF8960"/>
<stop offset="1" stop-color="#FF62A5"/>
</linearGradient>
</defs>
</svg>
